<?xml version="1.0" encoding="UTF-8"?>
<svg xmlns="http://www.w3.org/2000/svg" xmlns:xlink="http://www.w3.org/1999/xlink" width="400" height="400" viewBox="0 0 400 400">
<defs>
<g>
<g id="glyph-0-0">
<path d="M 1.03125 -10.042969 L 2.980469 -10.042969 L 5.867188 -1.550781 L 8.730469 -10.042969 L 10.65625 -10.042969 L 10.65625 0 L 9.367188 0 L 9.367188 -5.925781 C 9.367188 -6.132812 9.371094 -6.472656 9.378906 -6.945312 C 9.386719 -7.417969 9.390625 -7.925781 9.390625 -8.46875 L 6.527344 0 L 5.179688 0 L 2.296875 -8.46875 L 2.296875 -8.164062 C 2.296875 -7.917969 2.300781 -7.542969 2.3125 -7.039062 C 2.324219 -6.535156 2.332031 -6.164062 2.332031 -5.925781 L 2.332031 0 L 1.03125 0 Z M 1.03125 -10.042969 "/>
</g>
<g id="glyph-0-1">
<path d="M 0.289062 -10.042969 L 1.875 -10.042969 L 4.757812 -5.214844 L 7.640625 -10.042969 L 9.234375 -10.042969 L 5.441406 -4.046875 L 5.441406 0 L 4.082031 0 L 4.082031 -4.046875 Z M 0.289062 -10.042969 "/>
</g>
<g id="glyph-0-2">
<path d="M 4.839844 -5.796875 C 5.414062 -5.796875 5.859375 -5.875 6.179688 -6.035156 C 6.679688 -6.285156 6.929688 -6.738281 6.929688 -7.390625 C 6.929688 -8.046875 6.664062 -8.488281 6.132812 -8.714844 C 5.832031 -8.84375 5.382812 -8.90625 4.792969 -8.90625 L 2.367188 -8.90625 L 2.367188 -5.796875 Z M 5.296875 -1.164062 C 6.132812 -1.164062 6.726562 -1.402344 7.082031 -1.886719 C 7.304688 -2.191406 7.417969 -2.5625 7.417969 -2.992188 C 7.417969 -3.722656 7.089844 -4.21875 6.4375 -4.484375 C 6.09375 -4.625 5.636719 -4.695312 5.066406 -4.695312 L 2.367188 -4.695312 L 2.367188 -1.164062 Z M 1.03125 -10.042969 L 5.34375 -10.042969 C 6.519531 -10.042969 7.359375 -9.691406 7.855469 -8.988281 C 8.148438 -8.574219 8.292969 -8.097656 8.292969 -7.554688 C 8.292969 -6.921875 8.113281 -6.402344 7.75 -5.996094 C 7.5625 -5.78125 7.296875 -5.585938 6.945312 -5.40625 C 7.460938 -5.210938 7.84375 -4.992188 8.101562 -4.742188 C 8.550781 -4.304688 8.777344 -3.703125 8.777344 -2.933594 C 8.777344 -2.285156 8.574219 -1.699219 8.167969 -1.175781 C 7.5625 -0.390625 6.597656 0 5.277344 0 L 1.03125 0 Z M 1.03125 -10.042969 "/>
</g>
<g id="glyph-0-3">
<path d="M 6.21875 -4.117188 L 4.695312 -8.550781 L 3.078125 -4.117188 Z M 3.984375 -10.042969 L 5.523438 -10.042969 L 9.167969 0 L 7.675781 0 L 6.65625 -3.007812 L 2.6875 -3.007812 L 1.601562 0 L 0.203125 0 Z M 3.984375 -10.042969 "/>
</g>
<g id="glyph-0-4">
<path d="M 1.195312 -10.042969 L 8.164062 -10.042969 L 8.164062 -8.8125 L 2.554688 -8.8125 L 2.554688 -5.761719 L 7.484375 -5.761719 L 7.484375 -4.566406 L 2.554688 -4.566406 L 2.554688 0 L 1.195312 0 Z M 1.195312 -10.042969 "/>
</g>
<g id="glyph-0-5">
<path d="M 1.195312 -10.042969 L 5.714844 -10.042969 C 6.609375 -10.042969 7.328125 -9.789062 7.875 -9.285156 C 8.421875 -8.78125 8.695312 -8.074219 8.695312 -7.164062 C 8.695312 -6.378906 8.453125 -5.699219 7.964844 -5.117188 C 7.476562 -4.535156 6.726562 -4.246094 5.714844 -4.246094 L 2.554688 -4.246094 L 2.554688 0 L 1.195312 0 Z M 7.320312 -7.15625 C 7.320312 -7.894531 7.046875 -8.398438 6.5 -8.660156 C 6.199219 -8.800781 5.789062 -8.875 5.265625 -8.875 L 2.554688 -8.875 L 2.554688 -5.394531 L 5.265625 -5.394531 C 5.875 -5.394531 6.371094 -5.523438 6.75 -5.78125 C 7.132812 -6.042969 7.320312 -6.5 7.320312 -7.15625 Z M 7.320312 -7.15625 "/>
</g>
<g id="glyph-0-6">
<path d="M 5.734375 -5.441406 C 6.375 -5.441406 6.878906 -5.570312 7.25 -5.824219 C 7.621094 -6.078125 7.804688 -6.539062 7.804688 -7.203125 C 7.804688 -7.921875 7.546875 -8.40625 7.027344 -8.667969 C 6.75 -8.804688 6.378906 -8.875 5.914062 -8.875 L 2.589844 -8.875 L 2.589844 -5.441406 Z M 1.230469 -10.042969 L 5.878906 -10.042969 C 6.644531 -10.042969 7.277344 -9.929688 7.773438 -9.707031 C 8.714844 -9.277344 9.1875 -8.488281 9.1875 -7.335938 C 9.1875 -6.734375 9.0625 -6.242188 8.816406 -5.859375 C 8.566406 -5.476562 8.21875 -5.167969 7.773438 -4.9375 C 8.164062 -4.777344 8.460938 -4.566406 8.65625 -4.304688 C 8.855469 -4.046875 8.964844 -3.625 8.988281 -3.042969 L 9.039062 -1.695312 C 9.050781 -1.3125 9.082031 -1.027344 9.132812 -0.839844 C 9.214844 -0.523438 9.359375 -0.316406 9.570312 -0.226562 L 9.570312 0 L 7.902344 0 C 7.855469 -0.0859375 7.820312 -0.199219 7.792969 -0.335938 C 7.765625 -0.472656 7.742188 -0.734375 7.726562 -1.128906 L 7.640625 -2.804688 C 7.609375 -3.460938 7.367188 -3.898438 6.910156 -4.121094 C 6.652344 -4.246094 6.242188 -4.304688 5.6875 -4.304688 L 2.589844 -4.304688 L 2.589844 0 L 1.230469 0 Z M 1.230469 -10.042969 "/>
</g>
<g id="glyph-0-7">
<path d="M 5.40625 -10.300781 C 6.351562 -10.300781 7.167969 -10.121094 7.855469 -9.753906 C 8.851562 -9.230469 9.464844 -8.3125 9.6875 -7 L 8.339844 -7 C 8.175781 -7.734375 7.835938 -8.269531 7.320312 -8.601562 C 6.804688 -8.9375 6.15625 -9.105469 5.375 -9.105469 C 4.445312 -9.105469 3.660156 -8.757812 3.023438 -8.058594 C 2.390625 -7.363281 2.070312 -6.324219 2.070312 -4.941406 C 2.070312 -3.75 2.332031 -2.777344 2.859375 -2.027344 C 3.382812 -1.277344 4.234375 -0.902344 5.421875 -0.902344 C 6.328125 -0.902344 7.078125 -1.164062 7.671875 -1.691406 C 8.265625 -2.21875 8.570312 -3.070312 8.585938 -4.246094 L 5.441406 -4.246094 L 5.441406 -5.375 L 9.851562 -5.375 L 9.851562 0 L 8.976562 0 L 8.648438 -1.292969 C 8.1875 -0.785156 7.78125 -0.433594 7.421875 -0.238281 C 6.828125 0.0976562 6.066406 0.265625 5.148438 0.265625 C 3.957031 0.265625 2.933594 -0.117188 2.078125 -0.890625 C 1.144531 -1.855469 0.675781 -3.179688 0.675781 -4.867188 C 0.675781 -6.546875 1.132812 -7.886719 2.042969 -8.878906 C 2.910156 -9.828125 4.03125 -10.300781 5.40625 -10.300781 Z M 5.40625 -10.300781 "/>
</g>
<g id="glyph-0-8">
<path d="M 1.195312 -10.042969 L 8.515625 -10.042969 L 8.515625 -8.8125 L 2.523438 -8.8125 L 2.523438 -5.761719 L 8.066406 -5.761719 L 8.066406 -4.601562 L 2.523438 -4.601562 L 2.523438 -1.195312 L 8.621094 -1.195312 L 8.621094 0 L 1.195312 0 Z M 1.195312 -10.042969 "/>
</g>
<g id="glyph-0-9">
<path d="M 0.4375 0 C 0.484375 -0.84375 0.65625 -1.578125 0.960938 -2.203125 C 1.265625 -2.828125 1.855469 -3.394531 2.734375 -3.902344 L 4.046875 -4.664062 C 4.632812 -5.003906 5.046875 -5.296875 5.285156 -5.539062 C 5.65625 -5.914062 5.84375 -6.347656 5.84375 -6.835938 C 5.84375 -7.40625 5.671875 -7.859375 5.332031 -8.191406 C 4.992188 -8.527344 4.535156 -8.695312 3.964844 -8.695312 C 3.121094 -8.695312 2.539062 -8.375 2.214844 -7.738281 C 2.042969 -7.398438 1.945312 -6.921875 1.929688 -6.316406 L 0.675781 -6.316406 C 0.691406 -7.167969 0.847656 -7.863281 1.148438 -8.402344 C 1.679688 -9.351562 2.621094 -9.824219 3.972656 -9.824219 C 5.09375 -9.824219 5.910156 -9.519531 6.429688 -8.914062 C 6.945312 -8.308594 7.203125 -7.632812 7.203125 -6.890625 C 7.203125 -6.105469 6.929688 -5.4375 6.378906 -4.882812 C 6.058594 -4.558594 5.488281 -4.164062 4.664062 -3.703125 L 3.726562 -3.1875 C 3.28125 -2.941406 2.929688 -2.703125 2.671875 -2.480469 C 2.21875 -2.085938 1.929688 -1.644531 1.8125 -1.164062 L 7.15625 -1.164062 L 7.15625 0 Z M 0.4375 0 "/>
</g>
<g id="glyph-0-10">
<path d="M 1.953125 -3.242188 C 1.984375 -2.671875 2.121094 -2.207031 2.359375 -1.851562 C 2.808594 -1.1875 3.605469 -0.855469 4.742188 -0.855469 C 5.253906 -0.855469 5.71875 -0.925781 6.140625 -1.074219 C 6.949219 -1.355469 7.355469 -1.863281 7.355469 -2.589844 C 7.355469 -3.136719 7.183594 -3.527344 6.84375 -3.757812 C 6.496094 -3.988281 5.953125 -4.1875 5.214844 -4.355469 L 3.855469 -4.664062 C 2.96875 -4.863281 2.335938 -5.082031 1.96875 -5.324219 C 1.332031 -5.742188 1.011719 -6.371094 1.011719 -7.203125 C 1.011719 -8.105469 1.324219 -8.847656 1.949219 -9.425781 C 2.574219 -10.003906 3.457031 -10.296875 4.601562 -10.296875 C 5.652344 -10.296875 6.546875 -10.039062 7.285156 -9.53125 C 8.019531 -9.023438 8.386719 -8.210938 8.386719 -7.09375 L 7.109375 -7.09375 C 7.039062 -7.632812 6.894531 -8.046875 6.671875 -8.332031 C 6.257812 -8.855469 5.554688 -9.117188 4.558594 -9.117188 C 3.757812 -9.117188 3.179688 -8.949219 2.828125 -8.613281 C 2.476562 -8.277344 2.304688 -7.882812 2.304688 -7.4375 C 2.304688 -6.945312 2.507812 -6.585938 2.917969 -6.359375 C 3.1875 -6.210938 3.796875 -6.03125 4.742188 -5.8125 L 6.152344 -5.488281 C 6.832031 -5.335938 7.355469 -5.121094 7.726562 -4.851562 C 8.363281 -4.382812 8.679688 -3.703125 8.679688 -2.808594 C 8.679688 -1.695312 8.277344 -0.902344 7.46875 -0.421875 C 6.660156 0.0546875 5.71875 0.292969 4.648438 0.292969 C 3.398438 0.292969 2.421875 -0.0234375 1.714844 -0.664062 C 1.007812 -1.296875 0.664062 -2.15625 0.675781 -3.242188 Z M 1.953125 -3.242188 "/>
</g>
<g id="glyph-0-11">
<path d="M 8.375 -10.042969 L 8.375 -8.84375 L 4.992188 -8.84375 L 4.992188 0 L 3.609375 0 L 3.609375 -8.84375 L 0.226562 -8.84375 L 0.226562 -10.042969 Z M 8.375 -10.042969 "/>
</g>
<g id="glyph-0-12">
<path d="M 1.339844 -6.929688 L 1.339844 -7.875 C 2.226562 -7.960938 2.847656 -8.105469 3.199219 -8.308594 C 3.550781 -8.511719 3.8125 -8.992188 3.984375 -9.75 L 4.957031 -9.75 L 4.957031 0 L 3.644531 0 L 3.644531 -6.929688 Z M 1.339844 -6.929688 "/>
</g>
<g id="glyph-0-13">
<path d="M 5.296875 -10.316406 C 6.570312 -10.316406 7.554688 -9.980469 8.257812 -9.3125 C 8.960938 -8.640625 9.347656 -7.878906 9.425781 -7.027344 L 8.101562 -7.027344 C 7.949219 -7.675781 7.652344 -8.1875 7.203125 -8.566406 C 6.753906 -8.945312 6.121094 -9.132812 5.3125 -9.132812 C 4.324219 -9.132812 3.523438 -8.785156 2.914062 -8.089844 C 2.304688 -7.394531 2.003906 -6.328125 2.003906 -4.894531 C 2.003906 -3.71875 2.277344 -2.765625 2.828125 -2.035156 C 3.375 -1.304688 4.195312 -0.9375 5.285156 -0.9375 C 6.289062 -0.9375 7.050781 -1.320312 7.574219 -2.09375 C 7.851562 -2.5 8.058594 -3.03125 8.195312 -3.691406 L 9.523438 -3.691406 C 9.40625 -2.632812 9.011719 -1.746094 8.347656 -1.03125 C 7.550781 -0.171875 6.472656 0.257812 5.121094 0.257812 C 3.953125 0.257812 2.972656 -0.09375 2.179688 -0.800781 C 1.136719 -1.734375 0.617188 -3.175781 0.617188 -5.125 C 0.617188 -6.609375 1.007812 -7.824219 1.789062 -8.769531 C 2.636719 -9.800781 3.808594 -10.316406 5.296875 -10.316406 Z M 5.296875 -10.316406 "/>
</g>
<g id="glyph-0-14">
<path d="M 1.066406 -10.042969 L 2.425781 -10.042969 L 2.425781 -1.195312 L 7.511719 -1.195312 L 7.511719 0 L 1.066406 0 Z M 1.066406 -10.042969 "/>
</g>
<g id="glyph-0-15">
<path d="M 4.09375 -9.828125 C 5.1875 -9.828125 5.949219 -9.546875 6.382812 -8.980469 C 6.8125 -8.414062 7.027344 -7.828125 7.027344 -7.226562 L 5.8125 -7.226562 C 5.738281 -7.613281 5.621094 -7.914062 5.460938 -8.132812 C 5.164062 -8.542969 4.71875 -8.75 4.117188 -8.75 C 3.429688 -8.75 2.878906 -8.433594 2.476562 -7.796875 C 2.070312 -7.160156 1.84375 -6.25 1.796875 -5.066406 C 2.078125 -5.480469 2.4375 -5.789062 2.863281 -5.996094 C 3.257812 -6.179688 3.695312 -6.269531 4.175781 -6.269531 C 4.996094 -6.269531 5.710938 -6.007812 6.324219 -5.484375 C 6.933594 -4.960938 7.238281 -4.175781 7.238281 -3.136719 C 7.238281 -2.25 6.949219 -1.460938 6.371094 -0.777344 C 5.792969 -0.0898438 4.96875 0.253906 3.898438 0.253906 C 2.980469 0.253906 2.191406 -0.09375 1.523438 -0.789062 C 0.859375 -1.484375 0.527344 -2.65625 0.527344 -4.300781 C 0.527344 -5.515625 0.675781 -6.546875 0.96875 -7.398438 C 1.539062 -9.019531 2.582031 -9.828125 4.09375 -9.828125 Z M 4.007812 -0.839844 C 4.652344 -0.839844 5.136719 -1.058594 5.457031 -1.492188 C 5.78125 -1.929688 5.941406 -2.441406 5.941406 -3.035156 C 5.941406 -3.535156 5.796875 -4.015625 5.507812 -4.46875 C 5.222656 -4.921875 4.699219 -5.148438 3.945312 -5.148438 C 3.414062 -5.148438 2.953125 -4.972656 2.554688 -4.621094 C 2.15625 -4.269531 1.953125 -3.742188 1.953125 -3.035156 C 1.953125 -2.414062 2.136719 -1.894531 2.5 -1.472656 C 2.859375 -1.050781 3.363281 -0.839844 4.007812 -0.839844 Z M 4.007812 -0.839844 "/>
</g>
</g>
</defs>
<rect x="-40" y="-40" width="480" height="480" fill="rgb(100%, 100%, 100%)" fill-opacity="1"/>
<path fill="none" stroke-width="4.203405" stroke-linecap="butt" stroke-linejoin="miter" stroke="rgb(43.921569%, 67.843137%, 27.843137%)" stroke-opacity="1" stroke-miterlimit="10" d="M 350 200 L 275 350 "/>
<path fill="none" stroke-width="0.507707" stroke-linecap="butt" stroke-linejoin="miter" stroke="rgb(43.921569%, 67.843137%, 27.843137%)" stroke-opacity="1" stroke-miterlimit="10" d="M 350 200 L 125 350 "/>
<path fill="none" stroke-width="8.313217" stroke-linecap="butt" stroke-linejoin="miter" stroke="rgb(43.921569%, 67.843137%, 27.843137%)" stroke-opacity="1" stroke-miterlimit="10" d="M 350 200 L 50 200 "/>
<path fill="none" stroke-width="0.915469" stroke-linecap="butt" stroke-linejoin="miter" stroke="rgb(43.921569%, 67.843137%, 27.843137%)" stroke-opacity="1" stroke-miterlimit="10" d="M 350 200 L 275 50 "/>
<path fill="none" stroke-width="1.345398" stroke-linecap="butt" stroke-linejoin="miter" stroke="rgb(43.921569%, 67.843137%, 27.843137%)" stroke-opacity="1" stroke-miterlimit="10" d="M 275 350 L 125 350 "/>
<path fill="none" stroke-width="4.46633" stroke-linecap="butt" stroke-linejoin="miter" stroke="rgb(43.921569%, 67.843137%, 27.843137%)" stroke-opacity="1" stroke-miterlimit="10" d="M 275 350 L 50 200 "/>
<path fill="none" stroke-width="0.591195" stroke-linecap="butt" stroke-linejoin="miter" stroke="rgb(43.921569%, 67.843137%, 27.843137%)" stroke-opacity="1" stroke-miterlimit="10" d="M 275 350 L 275 50 "/>
<path fill="none" stroke-width="3.250103" stroke-linecap="butt" stroke-linejoin="miter" stroke="rgb(43.921569%, 67.843137%, 27.843137%)" stroke-opacity="1" stroke-miterlimit="10" d="M 275 350 L 125 350 "/>
<path fill="none" stroke-width="4.845973" stroke-linecap="butt" stroke-linejoin="miter" stroke="rgb(43.921569%, 67.843137%, 27.843137%)" stroke-opacity="1" stroke-miterlimit="10" d="M 125 350 L 50 200 "/>
<path fill="none" stroke-width="0.87614" stroke-linecap="butt" stroke-linejoin="miter" stroke="rgb(43.921569%, 67.843137%, 27.843137%)" stroke-opacity="1" stroke-miterlimit="10" d="M 125 350 L 275 50 "/>
<path fill="none" stroke-width="2.642965" stroke-linecap="butt" stroke-linejoin="miter" stroke="rgb(43.921569%, 67.843137%, 27.843137%)" stroke-opacity="1" stroke-miterlimit="10" d="M 275 350 L 50 200 "/>
<path fill="none" stroke-width="0.897408" stroke-linecap="butt" stroke-linejoin="miter" stroke="rgb(100%, 0%, 0%)" stroke-opacity="1" stroke-miterlimit="10" d="M 125 350 L 50 200 "/>
<path fill="none" stroke-width="3.233569" stroke-linecap="butt" stroke-linejoin="miter" stroke="rgb(43.921569%, 67.843137%, 27.843137%)" stroke-opacity="1" stroke-miterlimit="10" d="M 275 350 L 125 50 "/>
<path fill="none" stroke-width="0.690466" stroke-linecap="butt" stroke-linejoin="miter" stroke="rgb(100%, 0%, 0%)" stroke-opacity="1" stroke-miterlimit="10" d="M 125 350 L 125 50 "/>
<path fill="none" stroke-width="8.113907" stroke-linecap="butt" stroke-linejoin="miter" stroke="rgb(43.921569%, 67.843137%, 27.843137%)" stroke-opacity="1" stroke-miterlimit="10" d="M 50 200 L 125 50 "/>
<path fill="none" stroke-width="0.915469" stroke-linecap="butt" stroke-linejoin="miter" stroke="rgb(43.921569%, 67.843137%, 27.843137%)" stroke-opacity="1" stroke-miterlimit="10" d="M 125 50 L 275 50 "/>
<path fill="none" stroke-width="2.224581" stroke-linecap="butt" stroke-linejoin="miter" stroke="rgb(43.921569%, 67.843137%, 27.843137%)" stroke-opacity="1" stroke-miterlimit="10" d="M 275 350 L 275 50 "/>
<path fill="none" stroke-width="0.639083" stroke-linecap="butt" stroke-linejoin="miter" stroke="rgb(43.921569%, 67.843137%, 27.843137%)" stroke-opacity="1" stroke-miterlimit="10" d="M 125 350 L 275 50 "/>
<path fill="none" stroke-width="4.8704" stroke-linecap="butt" stroke-linejoin="miter" stroke="rgb(43.921569%, 67.843137%, 27.843137%)" stroke-opacity="1" stroke-miterlimit="10" d="M 50 200 L 275 50 "/>
<path fill-rule="nonzero" fill="rgb(85.490196%, 89.019608%, 95.294118%)" fill-opacity="1" stroke-width="1" stroke-linecap="butt" stroke-linejoin="miter" stroke="rgb(18.431373%, 32.156863%, 56.078431%)" stroke-opacity="1" stroke-miterlimit="10" d="M 375 200 C 375 213.808594 363.808594 225 350 225 C 336.191406 225 325 213.808594 325 200 C 325 186.191406 336.191406 175 350 175 C 363.808594 175 375 186.191406 375 200 "/>
<path fill-rule="nonzero" fill="rgb(85.490196%, 89.019608%, 95.294118%)" fill-opacity="1" stroke-width="1" stroke-linecap="butt" stroke-linejoin="miter" stroke="rgb(18.431373%, 32.156863%, 56.078431%)" stroke-opacity="1" stroke-miterlimit="10" d="M 300 350 C 300 363.808594 288.808594 375 275 375 C 261.191406 375 250 363.808594 250 350 C 250 336.191406 261.191406 325 275 325 C 288.808594 325 300 336.191406 300 350 "/>
<path fill-rule="nonzero" fill="rgb(85.490196%, 89.019608%, 95.294118%)" fill-opacity="1" stroke-width="1" stroke-linecap="butt" stroke-linejoin="miter" stroke="rgb(18.431373%, 32.156863%, 56.078431%)" stroke-opacity="1" stroke-miterlimit="10" d="M 150 350 C 150 363.808594 138.808594 375 125 375 C 111.191406 375 100 363.808594 100 350 C 100 336.191406 111.191406 325 125 325 C 138.808594 325 150 336.191406 150 350 "/>
<path fill-rule="nonzero" fill="rgb(85.490196%, 89.019608%, 95.294118%)" fill-opacity="1" stroke-width="1" stroke-linecap="butt" stroke-linejoin="miter" stroke="rgb(18.431373%, 32.156863%, 56.078431%)" stroke-opacity="1" stroke-miterlimit="10" d="M 75 200 C 75 213.808594 63.808594 225 50 225 C 36.191406 225 25 213.808594 25 200 C 25 186.191406 36.191406 175 50 175 C 63.808594 175 75 186.191406 75 200 "/>
<path fill-rule="nonzero" fill="rgb(85.490196%, 89.019608%, 95.294118%)" fill-opacity="1" stroke-width="1" stroke-linecap="butt" stroke-linejoin="miter" stroke="rgb(18.431373%, 32.156863%, 56.078431%)" stroke-opacity="1" stroke-miterlimit="10" d="M 150 50 C 150 63.808594 138.808594 75 125 75 C 111.191406 75 100 63.808594 100 50 C 100 36.191406 111.191406 25 125 25 C 138.808594 25 150 36.191406 150 50 "/>
<path fill-rule="nonzero" fill="rgb(85.490196%, 89.019608%, 95.294118%)" fill-opacity="1" stroke-width="1" stroke-linecap="butt" stroke-linejoin="miter" stroke="rgb(18.431373%, 32.156863%, 56.078431%)" stroke-opacity="1" stroke-miterlimit="10" d="M 300 50 C 300 63.808594 288.808594 75 275 75 C 261.191406 75 250 63.808594 250 50 C 250 36.191406 261.191406 25 275 25 C 288.808594 25 300 36.191406 300 50 "/>
<g fill="rgb(0%, 0%, 0%)" fill-opacity="1">
<use xlink:href="#glyph-0-0" x="334.59375" y="206.632812"/>
<use xlink:href="#glyph-0-1" x="346.255859" y="206.632812"/>
<use xlink:href="#glyph-0-2" x="355.59375" y="206.632812"/>
</g>
<g fill="rgb(0%, 0%, 0%)" fill-opacity="1">
<use xlink:href="#glyph-0-0" x="255.320312" y="356.628906"/>
<use xlink:href="#glyph-0-3" x="266.982422" y="356.628906"/>
<use xlink:href="#glyph-0-4" x="276.320312" y="356.628906"/>
<use xlink:href="#glyph-0-2" x="284.87207" y="356.628906"/>
</g>
<g fill="rgb(0%, 0%, 0%)" fill-opacity="1">
<use xlink:href="#glyph-0-5" x="100.414062" y="356.765625"/>
<use xlink:href="#glyph-0-5" x="109.751953" y="356.765625"/>
<use xlink:href="#glyph-0-3" x="119.089844" y="356.765625"/>
<use xlink:href="#glyph-0-6" x="128.427734" y="356.765625"/>
<use xlink:href="#glyph-0-7" x="138.538086" y="356.765625"/>
</g>
<g fill="rgb(0%, 0%, 0%)" fill-opacity="1">
<use xlink:href="#glyph-0-8" x="30.628906" y="206.769531"/>
<use xlink:href="#glyph-0-7" x="39.966797" y="206.769531"/>
<use xlink:href="#glyph-0-6" x="50.856445" y="206.769531"/>
<use xlink:href="#glyph-0-9" x="60.966797" y="206.769531"/>
</g>
<g fill="rgb(0%, 0%, 0%)" fill-opacity="1">
<use xlink:href="#glyph-0-10" x="104.304688" y="56.769531"/>
<use xlink:href="#glyph-0-11" x="113.642578" y="56.769531"/>
<use xlink:href="#glyph-0-3" x="122.194336" y="56.769531"/>
<use xlink:href="#glyph-0-11" x="131.532227" y="56.769531"/>
<use xlink:href="#glyph-0-12" x="140.083984" y="56.769531"/>
</g>
<g fill="rgb(0%, 0%, 0%)" fill-opacity="1">
<use xlink:href="#glyph-0-2" x="257.246094" y="56.765625"/>
<use xlink:href="#glyph-0-13" x="266.583984" y="56.765625"/>
<use xlink:href="#glyph-0-14" x="276.694336" y="56.765625"/>
<use xlink:href="#glyph-0-15" x="284.480469" y="56.765625"/>
</g>
</svg>
