<?xml version="1.0" encoding="utf-8" standalone="no"?>
<!DOCTYPE svg PUBLIC "-//W3C//DTD SVG 1.1//EN"
  "http://www.w3.org/Graphics/SVG/1.1/DTD/svg11.dtd">
<svg xmlns:xlink="http://www.w3.org/1999/xlink" width="572.4pt" height="476.2025pt" viewBox="0 0 572.4 476.2025" xmlns="http://www.w3.org/2000/svg" version="1.1">
 <metadata>
  <rdf:RDF xmlns:dc="http://purl.org/dc/elements/1.1/" xmlns:cc="http://creativecommons.org/ns#" xmlns:rdf="http://www.w3.org/1999/02/22-rdf-syntax-ns#">
   <cc:Work>
    <dc:type rdf:resource="http://purl.org/dc/dcmitype/StillImage"/>
    <dc:date>2026-04-24T14:10:29.560804</dc:date>
    <dc:format>image/svg+xml</dc:format>
    <dc:creator>
     <cc:Agent>
      <dc:title>Matplotlib v3.7.5, https://matplotlib.org/</dc:title>
     </cc:Agent>
    </dc:creator>
   </cc:Work>
  </rdf:RDF>
 </metadata>
 <defs>
  <style type="text/css">*{stroke-linejoin: round; stroke-linecap: butt}</style>
 </defs>
 <g id="figure_1">
  <g id="patch_1">
   <path d="M 0 476.2025 
L 572.4 476.2025 
L 572.4 0 
L 0 0 
z
" style="fill: #ffffff"/>
  </g>
  <g id="axes_1">
   <g id="patch_2">
    <path d="M 375.02071 58.514168 
Q 286.200664 37.98565 198.498857 58.255417 
" clip-path="url(#p88b3dd2783)" style="fill: none; stroke: #008000; stroke-width: 1.026547; stroke-linecap: round"/>
    <path d="M 213.715577 61.923034 
L 198.498857 58.255417 
L 210.562983 48.282611 
z
" clip-path="url(#p88b3dd2783)" style="fill: #008000; stroke: #008000; stroke-width: 1.026547; stroke-linecap: round"/>
   </g>
   <g id="patch_3">
    <path d="M 394.146348 91.926346 
Q 354.075109 248.066658 393.980949 403.562581 
" clip-path="url(#p88b3dd2783)" style="fill: none; stroke: #008000; stroke-width: 0.595039; stroke-linecap: round"/>
    <path d="M 397.281102 388.261961 
L 393.980949 403.562581 
L 383.720544 391.742087 
z
" clip-path="url(#p88b3dd2783)" style="fill: #008000; stroke: #008000; stroke-width: 0.595039; stroke-linecap: round"/>
   </g>
   <g id="patch_4">
    <path d="M 190.791153 84.37726 
Q 319.908816 202.158982 489.505889 242.164207 
" clip-path="url(#p88b3dd2783)" style="fill: none; stroke: #ff0000; stroke-width: 0.461968; stroke-linecap: round"/>
    <path d="M 477.486926 232.137019 
L 489.505889 242.164207 
L 474.27276 245.763065 
z
" clip-path="url(#p88b3dd2783)" style="fill: #ff0000; stroke: #ff0000; stroke-width: 0.461968; stroke-linecap: round"/>
   </g>
   <g id="patch_5">
    <path d="M 197.37927 72.572277 
Q 286.199316 93.100794 373.967041 72.815793 
" clip-path="url(#p88b3dd2783)" style="fill: none; stroke: #008000; stroke-width: 0.966034; stroke-linecap: round"/>
    <path d="M 358.75032 69.148175 
L 373.967041 72.815793 
L 361.902914 82.788599 
z
" clip-path="url(#p88b3dd2783)" style="fill: #008000; stroke: #008000; stroke-width: 0.966034; stroke-linecap: round"/>
   </g>
   <g id="patch_6">
    <path d="M 178.710965 91.797997 
Q 237.721586 278.688396 380.646914 411.814874 
" clip-path="url(#p88b3dd2783)" style="fill: none; stroke: #008000; stroke-width: 0.594295; stroke-linecap: round"/>
    <path d="M 375.173519 397.150565 
L 380.646914 411.814874 
L 365.63143 407.395005 
z
" clip-path="url(#p88b3dd2783)" style="fill: #008000; stroke: #008000; stroke-width: 0.594295; stroke-linecap: round"/>
   </g>
   <g id="patch_7">
    <path d="M 82.389094 242.283349 
Q 252.489141 202.160058 381.09532 84.84567 
" clip-path="url(#p88b3dd2783)" style="fill: none; stroke: #ff0000; stroke-width: 0.619552; stroke-linecap: round"/>
    <path d="M 366.034671 89.109102 
L 381.09532 84.84567 
L 375.469676 99.452248 
z
" clip-path="url(#p88b3dd2783)" style="fill: #ff0000; stroke: #ff0000; stroke-width: 0.619552; stroke-linecap: round"/>
   </g>
   <g id="patch_8">
    <path d="M 408.832137 404.207023 
Q 448.903376 248.066711 409.02902 92.693467 
" clip-path="url(#p88b3dd2783)" style="fill: none; stroke: #008000; stroke-width: 0.708322; stroke-linecap: round"/>
    <path d="M 405.728867 107.994088 
L 409.02902 92.693467 
L 419.289425 104.513961 
z
" clip-path="url(#p88b3dd2783)" style="fill: #008000; stroke: #008000; stroke-width: 0.708322; stroke-linecap: round"/>
   </g>
   <g id="patch_9">
    <path d="M 393.689001 404.335385 
Q 334.67838 217.444986 191.558256 84.137069 
" clip-path="url(#p88b3dd2783)" style="fill: none; stroke: #008000; stroke-width: 0.356193; stroke-linecap: round"/>
    <path d="M 197.031652 98.801377 
L 191.558256 84.137069 
L 206.57374 88.556937 
z
" clip-path="url(#p88b3dd2783)" style="fill: #008000; stroke: #008000; stroke-width: 0.356193; stroke-linecap: round"/>
   </g>
   <g id="PathCollection_1">
    <defs>
     <path id="m029355111b" d="M 0 27.386128 
C 7.262886 27.386128 14.229281 24.500553 19.364917 19.364917 
C 24.500553 14.229281 27.386128 7.262886 27.386128 0 
C 27.386128 -7.262886 24.500553 -14.229281 19.364917 -19.364917 
C 14.229281 -24.500553 7.262886 -27.386128 0 -27.386128 
C -7.262886 -27.386128 -14.229281 -24.500553 -19.364917 -19.364917 
C -24.500553 -14.229281 -27.386128 -7.262886 -27.386128 0 
C -27.386128 7.262886 -24.500553 14.229281 -19.364917 19.364917 
C -14.229281 24.500553 -7.262886 27.386128 0 27.386128 
z
" style="stroke: #000000"/>
    </defs>
    <g clip-path="url(#p88b3dd2783)">
     <use xlink:href="#m029355111b" x="516.778512" y="248.066685" style="fill: #a0cbe2; stroke: #000000"/>
     <use xlink:href="#m029355111b" x="401.489249" y="65.543216" style="fill: #a0cbe2; stroke: #000000"/>
     <use xlink:href="#m029355111b" x="170.91073" y="65.543229" style="fill: #a0cbe2; stroke: #000000"/>
     <use xlink:href="#m029355111b" x="55.621488" y="248.066703" style="fill: #a0cbe2; stroke: #000000"/>
     <use xlink:href="#m029355111b" x="170.910764" y="430.590153" style="fill: #a0cbe2; stroke: #000000"/>
     <use xlink:href="#m029355111b" x="401.489236" y="430.590153" style="fill: #a0cbe2; stroke: #000000"/>
    </g>
   </g>
   <g id="text_1">
    <g clip-path="url(#p88b3dd2783)">
     <!-- MYB -->
     <g transform="translate(499.408669 251.92981) scale(0.14 -0.14)">
      <defs>
       <path id="DejaVuSans-Bold-4d" d="M 588 4666 
L 2119 4666 
L 3181 2169 
L 4250 4666 
L 5778 4666 
L 5778 0 
L 4641 0 
L 4641 3413 
L 3566 897 
L 2803 897 
L 1728 3413 
L 1728 0 
L 588 0 
L 588 4666 
z
" transform="scale(0.015625)"/>
       <path id="DejaVuSans-Bold-59" d="M -63 4666 
L 1253 4666 
L 2316 3003 
L 3378 4666 
L 4697 4666 
L 2919 1966 
L 2919 0 
L 1716 0 
L 1716 1966 
L -63 4666 
z
" transform="scale(0.015625)"/>
       <path id="DejaVuSans-Bold-42" d="M 2456 2859 
Q 2741 2859 2887 2984 
Q 3034 3109 3034 3353 
Q 3034 3594 2887 3720 
Q 2741 3847 2456 3847 
L 1791 3847 
L 1791 2859 
L 2456 2859 
z
M 2497 819 
Q 2859 819 3042 972 
Q 3225 1125 3225 1434 
Q 3225 1738 3044 1889 
Q 2863 2041 2497 2041 
L 1791 2041 
L 1791 819 
L 2497 819 
z
M 3616 2497 
Q 4003 2384 4215 2081 
Q 4428 1778 4428 1338 
Q 4428 663 3972 331 
Q 3516 0 2584 0 
L 588 0 
L 588 4666 
L 2394 4666 
Q 3366 4666 3802 4372 
Q 4238 4078 4238 3431 
Q 4238 3091 4078 2852 
Q 3919 2613 3616 2497 
z
" transform="scale(0.015625)"/>
      </defs>
      <use xlink:href="#DejaVuSans-Bold-4d"/>
      <use xlink:href="#DejaVuSans-Bold-59" x="99.511719"/>
      <use xlink:href="#DejaVuSans-Bold-42" x="171.923828"/>
     </g>
    </g>
   </g>
   <g id="text_2">
    <g clip-path="url(#p88b3dd2783)">
     <!-- MAFB -->
     <g transform="translate(378.988624 69.406341) scale(0.14 -0.14)">
      <defs>
       <path id="DejaVuSans-Bold-41" d="M 3419 850 
L 1538 850 
L 1241 0 
L 31 0 
L 1759 4666 
L 3194 4666 
L 4922 0 
L 3713 0 
L 3419 850 
z
M 1838 1716 
L 3116 1716 
L 2478 3572 
L 1838 1716 
z
" transform="scale(0.015625)"/>
       <path id="DejaVuSans-Bold-46" d="M 588 4666 
L 3834 4666 
L 3834 3756 
L 1791 3756 
L 1791 2888 
L 3713 2888 
L 3713 1978 
L 1791 1978 
L 1791 0 
L 588 0 
L 588 4666 
z
" transform="scale(0.015625)"/>
      </defs>
      <use xlink:href="#DejaVuSans-Bold-4d"/>
      <use xlink:href="#DejaVuSans-Bold-41" x="99.511719"/>
      <use xlink:href="#DejaVuSans-Bold-46" x="176.904297"/>
      <use xlink:href="#DejaVuSans-Bold-42" x="245.214844"/>
     </g>
    </g>
   </g>
   <g id="text_3">
    <g clip-path="url(#p88b3dd2783)">
     <!-- PPARG -->
     <g transform="translate(144.735105 69.406354) scale(0.14 -0.14)">
      <defs>
       <path id="DejaVuSans-Bold-50" d="M 588 4666 
L 2584 4666 
Q 3475 4666 3951 4270 
Q 4428 3875 4428 3144 
Q 4428 2409 3951 2014 
Q 3475 1619 2584 1619 
L 1791 1619 
L 1791 0 
L 588 0 
L 588 4666 
z
M 1791 3794 
L 1791 2491 
L 2456 2491 
Q 2806 2491 2997 2661 
Q 3188 2831 3188 3144 
Q 3188 3456 2997 3625 
Q 2806 3794 2456 3794 
L 1791 3794 
z
" transform="scale(0.015625)"/>
       <path id="DejaVuSans-Bold-52" d="M 2297 2597 
Q 2675 2597 2839 2737 
Q 3003 2878 3003 3200 
Q 3003 3519 2839 3656 
Q 2675 3794 2297 3794 
L 1791 3794 
L 1791 2597 
L 2297 2597 
z
M 1791 1766 
L 1791 0 
L 588 0 
L 588 4666 
L 2425 4666 
Q 3347 4666 3776 4356 
Q 4206 4047 4206 3378 
Q 4206 2916 3982 2619 
Q 3759 2322 3309 2181 
Q 3556 2125 3751 1926 
Q 3947 1728 4147 1325 
L 4800 0 
L 3519 0 
L 2950 1159 
Q 2778 1509 2601 1637 
Q 2425 1766 2131 1766 
L 1791 1766 
z
" transform="scale(0.015625)"/>
       <path id="DejaVuSans-Bold-47" d="M 4781 347 
Q 4331 128 3847 18 
Q 3363 -91 2847 -91 
Q 1681 -91 1000 561 
Q 319 1213 319 2328 
Q 319 3456 1012 4103 
Q 1706 4750 2913 4750 
Q 3378 4750 3804 4662 
Q 4231 4575 4609 4403 
L 4609 3438 
Q 4219 3659 3833 3768 
Q 3447 3878 3059 3878 
Q 2341 3878 1952 3476 
Q 1563 3075 1563 2328 
Q 1563 1588 1938 1184 
Q 2313 781 3003 781 
Q 3191 781 3352 804 
Q 3513 828 3641 878 
L 3641 1784 
L 2906 1784 
L 2906 2591 
L 4781 2591 
L 4781 347 
z
" transform="scale(0.015625)"/>
      </defs>
      <use xlink:href="#DejaVuSans-Bold-50"/>
      <use xlink:href="#DejaVuSans-Bold-50" x="73.291016"/>
      <use xlink:href="#DejaVuSans-Bold-41" x="137.457031"/>
      <use xlink:href="#DejaVuSans-Bold-52" x="214.849609"/>
      <use xlink:href="#DejaVuSans-Bold-47" x="291.851562"/>
     </g>
    </g>
   </g>
   <g id="text_4">
    <g clip-path="url(#p88b3dd2783)">
     <!-- EGR2 -->
     <g transform="translate(34.833675 251.929828) scale(0.14 -0.14)">
      <defs>
       <path id="DejaVuSans-Bold-45" d="M 588 4666 
L 3834 4666 
L 3834 3756 
L 1791 3756 
L 1791 2888 
L 3713 2888 
L 3713 1978 
L 1791 1978 
L 1791 909 
L 3903 909 
L 3903 0 
L 588 0 
L 588 4666 
z
" transform="scale(0.015625)"/>
       <path id="DejaVuSans-Bold-32" d="M 1844 884 
L 3897 884 
L 3897 0 
L 506 0 
L 506 884 
L 2209 2388 
Q 2438 2594 2547 2791 
Q 2656 2988 2656 3200 
Q 2656 3528 2436 3728 
Q 2216 3928 1850 3928 
Q 1569 3928 1234 3808 
Q 900 3688 519 3450 
L 519 4475 
Q 925 4609 1322 4679 
Q 1719 4750 2100 4750 
Q 2938 4750 3402 4381 
Q 3866 4013 3866 3353 
Q 3866 2972 3669 2642 
Q 3472 2313 2841 1759 
L 1844 884 
z
" transform="scale(0.015625)"/>
      </defs>
      <use xlink:href="#DejaVuSans-Bold-45"/>
      <use xlink:href="#DejaVuSans-Bold-47" x="68.310547"/>
      <use xlink:href="#DejaVuSans-Bold-52" x="150.390625"/>
      <use xlink:href="#DejaVuSans-Bold-32" x="227.392578"/>
     </g>
    </g>
   </g>
   <g id="text_5">
    <g clip-path="url(#p88b3dd2783)">
     <!-- STAT1 -->
     <g transform="translate(147.116233 434.453278) scale(0.14 -0.14)">
      <defs>
       <path id="DejaVuSans-Bold-53" d="M 3834 4519 
L 3834 3531 
Q 3450 3703 3084 3790 
Q 2719 3878 2394 3878 
Q 1963 3878 1756 3759 
Q 1550 3641 1550 3391 
Q 1550 3203 1689 3098 
Q 1828 2994 2194 2919 
L 2706 2816 
Q 3484 2659 3812 2340 
Q 4141 2022 4141 1434 
Q 4141 663 3683 286 
Q 3225 -91 2284 -91 
Q 1841 -91 1394 -6 
Q 947 78 500 244 
L 500 1259 
Q 947 1022 1364 901 
Q 1781 781 2169 781 
Q 2563 781 2772 912 
Q 2981 1044 2981 1288 
Q 2981 1506 2839 1625 
Q 2697 1744 2272 1838 
L 1806 1941 
Q 1106 2091 782 2419 
Q 459 2747 459 3303 
Q 459 4000 909 4375 
Q 1359 4750 2203 4750 
Q 2588 4750 2994 4692 
Q 3400 4634 3834 4519 
z
" transform="scale(0.015625)"/>
       <path id="DejaVuSans-Bold-54" d="M 31 4666 
L 4331 4666 
L 4331 3756 
L 2784 3756 
L 2784 0 
L 1581 0 
L 1581 3756 
L 31 3756 
L 31 4666 
z
" transform="scale(0.015625)"/>
       <path id="DejaVuSans-Bold-31" d="M 750 831 
L 1813 831 
L 1813 3847 
L 722 3622 
L 722 4441 
L 1806 4666 
L 2950 4666 
L 2950 831 
L 4013 831 
L 4013 0 
L 750 0 
L 750 831 
z
" transform="scale(0.015625)"/>
      </defs>
      <use xlink:href="#DejaVuSans-Bold-53"/>
      <use xlink:href="#DejaVuSans-Bold-54" x="72.021484"/>
      <use xlink:href="#DejaVuSans-Bold-41" x="132.484375"/>
      <use xlink:href="#DejaVuSans-Bold-54" x="202.126953"/>
      <use xlink:href="#DejaVuSans-Bold-31" x="270.339844"/>
     </g>
    </g>
   </g>
   <g id="text_6">
    <g clip-path="url(#p88b3dd2783)">
     <!-- BCL6 -->
     <g transform="translate(381.685798 434.453278) scale(0.14 -0.14)">
      <defs>
       <path id="DejaVuSans-Bold-43" d="M 4288 256 
Q 3956 84 3597 -3 
Q 3238 -91 2847 -91 
Q 1681 -91 1000 561 
Q 319 1213 319 2328 
Q 319 3447 1000 4098 
Q 1681 4750 2847 4750 
Q 3238 4750 3597 4662 
Q 3956 4575 4288 4403 
L 4288 3438 
Q 3953 3666 3628 3772 
Q 3303 3878 2944 3878 
Q 2300 3878 1931 3465 
Q 1563 3053 1563 2328 
Q 1563 1606 1931 1193 
Q 2300 781 2944 781 
Q 3303 781 3628 887 
Q 3953 994 4288 1222 
L 4288 256 
z
" transform="scale(0.015625)"/>
       <path id="DejaVuSans-Bold-4c" d="M 588 4666 
L 1791 4666 
L 1791 909 
L 3903 909 
L 3903 0 
L 588 0 
L 588 4666 
z
" transform="scale(0.015625)"/>
       <path id="DejaVuSans-Bold-36" d="M 2316 2303 
Q 2000 2303 1842 2098 
Q 1684 1894 1684 1484 
Q 1684 1075 1842 870 
Q 2000 666 2316 666 
Q 2634 666 2792 870 
Q 2950 1075 2950 1484 
Q 2950 1894 2792 2098 
Q 2634 2303 2316 2303 
z
M 3803 4544 
L 3803 3681 
Q 3506 3822 3243 3889 
Q 2981 3956 2731 3956 
Q 2194 3956 1894 3657 
Q 1594 3359 1544 2772 
Q 1750 2925 1990 3001 
Q 2231 3078 2516 3078 
Q 3231 3078 3670 2659 
Q 4109 2241 4109 1563 
Q 4109 813 3618 361 
Q 3128 -91 2303 -91 
Q 1394 -91 895 523 
Q 397 1138 397 2266 
Q 397 3422 980 4083 
Q 1563 4744 2578 4744 
Q 2900 4744 3203 4694 
Q 3506 4644 3803 4544 
z
" transform="scale(0.015625)"/>
      </defs>
      <use xlink:href="#DejaVuSans-Bold-42"/>
      <use xlink:href="#DejaVuSans-Bold-43" x="76.220703"/>
      <use xlink:href="#DejaVuSans-Bold-4c" x="149.609375"/>
      <use xlink:href="#DejaVuSans-Bold-36" x="213.330078"/>
     </g>
    </g>
   </g>
   <g id="text_7">
    <!-- QGRN (72→96; Δ=24)  |θ| &gt; 0.045 rad -->
    <g transform="translate(118.55625 19.4825) scale(0.16 -0.16)">
     <defs>
      <path id="DejaVuSans-Bold-51" d="M 2847 -84 
L 2753 -84 
Q 1600 -84 959 553 
Q 319 1191 319 2328 
Q 319 3463 958 4106 
Q 1597 4750 2719 4750 
Q 3853 4750 4486 4112 
Q 5119 3475 5119 2328 
Q 5119 1541 4783 972 
Q 4447 403 3816 116 
L 4756 -934 
L 3609 -934 
L 2847 -84 
z
M 2719 3878 
Q 2169 3878 1866 3472 
Q 1563 3066 1563 2328 
Q 1563 1578 1859 1179 
Q 2156 781 2719 781 
Q 3272 781 3575 1187 
Q 3878 1594 3878 2328 
Q 3878 3066 3575 3472 
Q 3272 3878 2719 3878 
z
" transform="scale(0.015625)"/>
      <path id="DejaVuSans-Bold-4e" d="M 588 4666 
L 1931 4666 
L 3628 1466 
L 3628 4666 
L 4769 4666 
L 4769 0 
L 3425 0 
L 1728 3200 
L 1728 0 
L 588 0 
L 588 4666 
z
" transform="scale(0.015625)"/>
      <path id="DejaVuSans-Bold-20" transform="scale(0.015625)"/>
      <path id="DejaVuSans-Bold-28" d="M 2413 -844 
L 1484 -844 
Q 1006 -72 778 623 
Q 550 1319 550 2003 
Q 550 2688 779 3389 
Q 1009 4091 1484 4856 
L 2413 4856 
Q 2013 4116 1813 3408 
Q 1613 2700 1613 2009 
Q 1613 1319 1811 609 
Q 2009 -100 2413 -844 
z
" transform="scale(0.015625)"/>
      <path id="DejaVuSans-Bold-37" d="M 428 4666 
L 3944 4666 
L 3944 3988 
L 2125 0 
L 953 0 
L 2675 3781 
L 428 3781 
L 428 4666 
z
" transform="scale(0.015625)"/>
      <path id="DejaVuSans-Bold-2192" d="M 5050 2225 
L 5050 1788 
L 3822 559 
L 3369 1013 
L 3988 1631 
L 366 1631 
L 366 2381 
L 3988 2381 
L 3369 3000 
L 3822 3453 
L 5050 2225 
z
" transform="scale(0.015625)"/>
      <path id="DejaVuSans-Bold-39" d="M 641 103 
L 641 966 
Q 928 831 1190 764 
Q 1453 697 1709 697 
Q 2247 697 2547 995 
Q 2847 1294 2900 1881 
Q 2688 1725 2447 1647 
Q 2206 1569 1925 1569 
Q 1209 1569 770 1986 
Q 331 2403 331 3084 
Q 331 3838 820 4291 
Q 1309 4744 2131 4744 
Q 3044 4744 3544 4128 
Q 4044 3513 4044 2388 
Q 4044 1231 3459 570 
Q 2875 -91 1856 -91 
Q 1528 -91 1228 -42 
Q 928 6 641 103 
z
M 2125 2350 
Q 2441 2350 2600 2554 
Q 2759 2759 2759 3169 
Q 2759 3575 2600 3781 
Q 2441 3988 2125 3988 
Q 1809 3988 1650 3781 
Q 1491 3575 1491 3169 
Q 1491 2759 1650 2554 
Q 1809 2350 2125 2350 
z
" transform="scale(0.015625)"/>
      <path id="DejaVuSans-Bold-3b" d="M 716 1209 
L 1844 1209 
L 1844 256 
L 1069 -909 
L 403 -909 
L 716 256 
L 716 1209 
z
M 716 3500 
L 1844 3500 
L 1844 2291 
L 716 2291 
L 716 3500 
z
" transform="scale(0.015625)"/>
      <path id="DejaVuSans-Bold-394" d="M 4922 0 
L 31 0 
L 1759 4666 
L 3194 4666 
L 4922 0 
z
M 1559 909 
L 3384 909 
L 2478 3572 
L 1559 909 
z
" transform="scale(0.015625)"/>
      <path id="DejaVuSans-Bold-3d" d="M 678 3084 
L 4684 3084 
L 4684 2350 
L 678 2350 
L 678 3084 
z
M 678 1663 
L 4684 1663 
L 4684 922 
L 678 922 
L 678 1663 
z
" transform="scale(0.015625)"/>
      <path id="DejaVuSans-Bold-34" d="M 2356 3675 
L 1038 1722 
L 2356 1722 
L 2356 3675 
z
M 2156 4666 
L 3494 4666 
L 3494 1722 
L 4159 1722 
L 4159 850 
L 3494 850 
L 3494 0 
L 2356 0 
L 2356 850 
L 288 850 
L 288 1881 
L 2156 4666 
z
" transform="scale(0.015625)"/>
      <path id="DejaVuSans-Bold-29" d="M 513 -844 
Q 913 -100 1113 609 
Q 1313 1319 1313 2009 
Q 1313 2700 1113 3408 
Q 913 4116 513 4856 
L 1441 4856 
Q 1916 4091 2145 3389 
Q 2375 2688 2375 2003 
Q 2375 1319 2147 623 
Q 1919 -72 1441 -844 
L 513 -844 
z
" transform="scale(0.015625)"/>
      <path id="DejaVuSans-Bold-7c" d="M 1522 4891 
L 1522 -1509 
L 813 -1509 
L 813 4891 
L 1522 4891 
z
" transform="scale(0.015625)"/>
      <path id="DejaVuSans-Bold-3b8" d="M 1447 2081 
Q 1469 1444 1638 1181 
Q 1922 728 2197 725 
Q 2475 722 2763 1181 
Q 2931 1453 2953 2081 
L 1447 2081 
z
M 2950 2881 
Q 2913 3394 2759 3688 
Q 2522 4144 2200 4144 
Q 1875 4144 1641 3688 
Q 1484 3384 1450 2881 
L 2950 2881 
z
M 2200 4913 
Q 3247 4913 3686 4231 
Q 4125 3550 4125 2403 
Q 4125 1256 3673 592 
Q 3222 -72 2200 -72 
Q 1178 -72 726 592 
Q 275 1256 275 2403 
Q 275 3550 714 4231 
Q 1153 4913 2200 4913 
z
" transform="scale(0.015625)"/>
      <path id="DejaVuSans-Bold-3e" d="M 678 3041 
L 678 3822 
L 4684 2375 
L 4684 1638 
L 678 191 
L 678 972 
L 3694 2003 
L 678 3041 
z
" transform="scale(0.015625)"/>
      <path id="DejaVuSans-Bold-30" d="M 2944 2338 
Q 2944 3213 2780 3570 
Q 2616 3928 2228 3928 
Q 1841 3928 1675 3570 
Q 1509 3213 1509 2338 
Q 1509 1453 1675 1090 
Q 1841 728 2228 728 
Q 2613 728 2778 1090 
Q 2944 1453 2944 2338 
z
M 4147 2328 
Q 4147 1169 3647 539 
Q 3147 -91 2228 -91 
Q 1306 -91 806 539 
Q 306 1169 306 2328 
Q 306 3491 806 4120 
Q 1306 4750 2228 4750 
Q 3147 4750 3647 4120 
Q 4147 3491 4147 2328 
z
" transform="scale(0.015625)"/>
      <path id="DejaVuSans-Bold-2e" d="M 653 1209 
L 1778 1209 
L 1778 0 
L 653 0 
L 653 1209 
z
" transform="scale(0.015625)"/>
      <path id="DejaVuSans-Bold-35" d="M 678 4666 
L 3669 4666 
L 3669 3781 
L 1638 3781 
L 1638 3059 
Q 1775 3097 1914 3117 
Q 2053 3138 2203 3138 
Q 3056 3138 3531 2711 
Q 4006 2284 4006 1522 
Q 4006 766 3489 337 
Q 2972 -91 2053 -91 
Q 1656 -91 1267 -14 
Q 878 63 494 219 
L 494 1166 
Q 875 947 1217 837 
Q 1559 728 1863 728 
Q 2300 728 2551 942 
Q 2803 1156 2803 1522 
Q 2803 1891 2551 2103 
Q 2300 2316 1863 2316 
Q 1603 2316 1309 2248 
Q 1016 2181 678 2041 
L 678 4666 
z
" transform="scale(0.015625)"/>
      <path id="DejaVuSans-Bold-72" d="M 3138 2547 
Q 2991 2616 2845 2648 
Q 2700 2681 2553 2681 
Q 2122 2681 1889 2404 
Q 1656 2128 1656 1613 
L 1656 0 
L 538 0 
L 538 3500 
L 1656 3500 
L 1656 2925 
Q 1872 3269 2151 3426 
Q 2431 3584 2822 3584 
Q 2878 3584 2943 3579 
Q 3009 3575 3134 3559 
L 3138 2547 
z
" transform="scale(0.015625)"/>
      <path id="DejaVuSans-Bold-61" d="M 2106 1575 
Q 1756 1575 1579 1456 
Q 1403 1338 1403 1106 
Q 1403 894 1545 773 
Q 1688 653 1941 653 
Q 2256 653 2472 879 
Q 2688 1106 2688 1447 
L 2688 1575 
L 2106 1575 
z
M 3816 1997 
L 3816 0 
L 2688 0 
L 2688 519 
Q 2463 200 2181 54 
Q 1900 -91 1497 -91 
Q 953 -91 614 226 
Q 275 544 275 1050 
Q 275 1666 698 1953 
Q 1122 2241 2028 2241 
L 2688 2241 
L 2688 2328 
Q 2688 2594 2478 2717 
Q 2269 2841 1825 2841 
Q 1466 2841 1156 2769 
Q 847 2697 581 2553 
L 581 3406 
Q 941 3494 1303 3539 
Q 1666 3584 2028 3584 
Q 2975 3584 3395 3211 
Q 3816 2838 3816 1997 
z
" transform="scale(0.015625)"/>
      <path id="DejaVuSans-Bold-64" d="M 2919 2988 
L 2919 4863 
L 4044 4863 
L 4044 0 
L 2919 0 
L 2919 506 
Q 2688 197 2409 53 
Q 2131 -91 1766 -91 
Q 1119 -91 703 423 
Q 288 938 288 1747 
Q 288 2556 703 3070 
Q 1119 3584 1766 3584 
Q 2128 3584 2408 3439 
Q 2688 3294 2919 2988 
z
M 2181 722 
Q 2541 722 2730 984 
Q 2919 1247 2919 1747 
Q 2919 2247 2730 2509 
Q 2541 2772 2181 2772 
Q 1825 2772 1636 2509 
Q 1447 2247 1447 1747 
Q 1447 1247 1636 984 
Q 1825 722 2181 722 
z
" transform="scale(0.015625)"/>
     </defs>
     <use xlink:href="#DejaVuSans-Bold-51"/>
     <use xlink:href="#DejaVuSans-Bold-47" x="85.009766"/>
     <use xlink:href="#DejaVuSans-Bold-52" x="167.089844"/>
     <use xlink:href="#DejaVuSans-Bold-4e" x="244.091797"/>
     <use xlink:href="#DejaVuSans-Bold-20" x="327.783203"/>
     <use xlink:href="#DejaVuSans-Bold-28" x="362.597656"/>
     <use xlink:href="#DejaVuSans-Bold-37" x="408.300781"/>
     <use xlink:href="#DejaVuSans-Bold-32" x="477.880859"/>
     <use xlink:href="#DejaVuSans-Bold-2192" x="547.460938"/>
     <use xlink:href="#DejaVuSans-Bold-39" x="631.25"/>
     <use xlink:href="#DejaVuSans-Bold-36" x="700.830078"/>
     <use xlink:href="#DejaVuSans-Bold-3b" x="770.410156"/>
     <use xlink:href="#DejaVuSans-Bold-20" x="810.400391"/>
     <use xlink:href="#DejaVuSans-Bold-394" x="845.214844"/>
     <use xlink:href="#DejaVuSans-Bold-3d" x="922.607422"/>
     <use xlink:href="#DejaVuSans-Bold-32" x="1006.396484"/>
     <use xlink:href="#DejaVuSans-Bold-34" x="1075.976562"/>
     <use xlink:href="#DejaVuSans-Bold-29" x="1145.556641"/>
     <use xlink:href="#DejaVuSans-Bold-20" x="1191.259766"/>
     <use xlink:href="#DejaVuSans-Bold-20" x="1226.074219"/>
     <use xlink:href="#DejaVuSans-Bold-7c" x="1260.888672"/>
     <use xlink:href="#DejaVuSans-Bold-3b8" x="1297.412109"/>
     <use xlink:href="#DejaVuSans-Bold-7c" x="1366.113281"/>
     <use xlink:href="#DejaVuSans-Bold-20" x="1402.636719"/>
     <use xlink:href="#DejaVuSans-Bold-3e" x="1437.451172"/>
     <use xlink:href="#DejaVuSans-Bold-20" x="1521.240234"/>
     <use xlink:href="#DejaVuSans-Bold-30" x="1556.054688"/>
     <use xlink:href="#DejaVuSans-Bold-2e" x="1625.634766"/>
     <use xlink:href="#DejaVuSans-Bold-30" x="1663.623047"/>
     <use xlink:href="#DejaVuSans-Bold-34" x="1733.203125"/>
     <use xlink:href="#DejaVuSans-Bold-35" x="1802.783203"/>
     <use xlink:href="#DejaVuSans-Bold-20" x="1872.363281"/>
     <use xlink:href="#DejaVuSans-Bold-72" x="1907.177734"/>
     <use xlink:href="#DejaVuSans-Bold-61" x="1956.494141"/>
     <use xlink:href="#DejaVuSans-Bold-64" x="2023.974609"/>
    </g>
   </g>
  </g>
 </g>
 <defs>
  <clipPath id="p88b3dd2783">
   <rect x="7.2" y="25.4825" width="558" height="443.52"/>
  </clipPath>
 </defs>
</svg>
